<?xml version="1.0" standalone="no"?>
<!-- Generator: Adobe Fireworks 10, Export SVG Extension by Aaron Beall (http://fireworks.abeall.com) . Version: 0.6.1  -->
<!DOCTYPE svg PUBLIC "-//W3C//DTD SVG 1.1//EN" "http://www.w3.org/Graphics/SVG/1.1/DTD/svg11.dtd">
<svg id="Untitled-Page%201" viewBox="0 0 834 707" style="background-color:#ffffff00" version="1.1"
	xmlns="http://www.w3.org/2000/svg" xmlns:xlink="http://www.w3.org/1999/xlink" xml:space="preserve"
	x="0px" y="0px" width="834px" height="707px"
>
	<g id="Layer%201">
		<rect x="1" y="0" width="832" height="707" fill="#2f3f4f"/>
		<path d="M 0.5 315 L 83.5 51 L 748.5 51 L 833.5 322 L 833.5 706 L 0.5 706 L 0.5 315 Z" fill="#11b559"/>
		<path d="M 1 362 L 86 81 L 746 81 L 834 376 " stroke="#ffffff" stroke-width="2" fill="none"/>
		<path d="M 267 82 L 260 133 L 572 133 L 565 82 " stroke="#ffffff" stroke-width="2" fill="none"/>
		<path id="Line" d="M 0.5 614.5 L 834.5 614.5 " stroke="#ffffff" stroke-width="4" fill="none"/>
		<path id="Ellipse" d="M 331.1066 706.093 C 310.9004 686.544 298.5 660.1042 298.5 631 C 298.5 570.8002 351.5534 522 417 522 C 482.4466 522 535.5 570.8002 535.5 631 C 535.5 660.4266 522.8234 687.1295 502.2191 706.7401 " stroke="#ffffff" stroke-width="3" fill="none"/>
		<path id="Ellipse2" d="M 479.8586 133 C 466.1013 149.8972 442.8575 160 416.5 160 C 390.1425 160 366.8987 149.8972 353.1414 133 " stroke="#ffffff" stroke-width="2" fill="none"/>
		<path id="Ellipse3" d="M 401 615 C 401 606.1633 408.1633 599 417 599 C 425.8367 599 433 606.1633 433 615 C 433 623.8367 425.8367 631 417 631 C 408.1633 631 401 623.8367 401 615 Z" fill="#ffffff"/>
		<path d="M 338 80 L 338 23 L 495 23 L 495 81 " stroke="#ffffff" stroke-width="3" fill="none"/>
		<path d="M 499 82 L 501 108 L 332 108 L 334 81 " stroke="#ffffff" stroke-width="2" fill="none"/>
		<path id="Ellipse4" d="M 119.9959 80.8273 " stroke="#ffffff" stroke-width="2" fill="none"/>
		<path id="Ellipse5" d="M 119.9959 81.8273 C 115.9459 88.4403 108.9468 93.3654 100 97 C 93.0358 99.8292 85.9308 100.8484 79.5564 100.2675 " stroke="#ffffff" stroke-width="2" fill="none"/>
		<path id="Ellipse6" d="M 710.5563 81.8273 C 714.6063 88.4403 721.6055 93.3654 730.5522 97 C 737.5165 99.8292 744.6215 100.8484 750.9958 100.2675 " stroke="#ffffff" stroke-width="2" fill="none"/>
		<g opacity="0.502">
			<g>
				<g>
					<path d="M 337 25 L 337 30.2384 L 341.3889 32.8572 L 345.7778 30.2384 L 345.7778 25 L 345.7778 25 " stroke="#ffffff" stroke-width="1" fill="none"/>
					<path d="M 345.7778 25 L 345.7778 30.2384 L 350.1667 32.8572 L 354.5556 30.2384 L 354.5556 25 L 354.5556 25 " stroke="#ffffff" stroke-width="1" fill="none"/>
					<path d="M 354.5556 25 L 354.5556 30.2384 L 358.9445 32.8572 L 363.3333 30.2384 L 363.3333 25 L 363.3333 25 " stroke="#ffffff" stroke-width="1" fill="none"/>
					<path d="M 363.3333 25 L 363.3333 30.2384 L 367.7223 32.8572 L 372.1111 30.2384 L 372.1111 25 L 372.1111 25 " stroke="#ffffff" stroke-width="1" fill="none"/>
					<path d="M 372.1111 25 L 372.1111 30.2384 L 376.5001 32.8572 L 380.8889 30.2384 L 380.8889 25 L 380.8889 25 " stroke="#ffffff" stroke-width="1" fill="none"/>
					<path d="M 380.8889 25 L 380.8889 30.2384 L 385.2778 32.8572 L 389.6667 30.2384 L 389.6667 25 L 389.6667 25 " stroke="#ffffff" stroke-width="1" fill="none"/>
					<path d="M 389.6667 25 L 389.6667 30.2384 L 394.0556 32.8572 L 398.4445 30.2384 L 398.4445 25 L 398.4445 25 " stroke="#ffffff" stroke-width="1" fill="none"/>
					<path d="M 398.4445 25 L 398.4445 30.2384 L 402.8334 32.8572 L 407.2223 30.2384 L 407.2223 25 L 407.2223 25 " stroke="#ffffff" stroke-width="1" fill="none"/>
					<path d="M 407.2223 25 L 407.2223 30.2384 L 411.6112 32.8572 L 416.0001 30.2384 L 416.0001 25 L 416.0001 25 " stroke="#ffffff" stroke-width="1" fill="none"/>
					<path d="M 416.0001 25 L 416.0001 30.2384 L 420.389 32.8572 L 424.7779 30.2384 L 424.7779 25 L 424.7779 25 " stroke="#ffffff" stroke-width="1" fill="none"/>
					<path d="M 424.7779 25 L 424.7779 30.2384 L 429.1668 32.8572 L 433.5556 30.2384 L 433.5556 25 L 433.5556 25 " stroke="#ffffff" stroke-width="1" fill="none"/>
					<path d="M 433.5556 25 L 433.5556 30.2384 L 437.9446 32.8572 L 442.3334 30.2384 L 442.3334 25 L 442.3334 25 " stroke="#ffffff" stroke-width="1" fill="none"/>
					<path d="M 442.3334 25 L 442.3334 30.2384 L 446.7224 32.8572 L 451.1112 30.2384 L 451.1112 25 L 451.1112 25 " stroke="#ffffff" stroke-width="1" fill="none"/>
					<path d="M 451.1112 25 L 451.1112 30.2384 L 455.5001 32.8572 L 459.889 30.2384 L 459.889 25 L 459.889 25 " stroke="#ffffff" stroke-width="1" fill="none"/>
					<path d="M 459.889 25 L 459.889 30.2384 L 464.2779 32.8572 L 468.6668 30.2384 L 468.6668 25 L 468.6668 25 " stroke="#ffffff" stroke-width="1" fill="none"/>
					<path d="M 468.6668 25 L 468.6668 30.2384 L 473.0557 32.8572 L 477.4446 30.2384 L 477.4446 25 L 477.4446 25 " stroke="#ffffff" stroke-width="1" fill="none"/>
					<path d="M 477.4446 25 L 477.4446 30.2384 L 481.8334 32.8572 L 486.2224 30.2384 L 486.2224 25 L 486.2224 25 " stroke="#ffffff" stroke-width="1" fill="none"/>
					<path d="M 486.2224 25 L 486.2224 30.2384 L 490.6111 32.8572 L 495 30.2384 L 495 25 L 495 25 " stroke="#ffffff" stroke-width="1" fill="none"/>
				</g>
				<g>
					<g>
						<path d="M 337 40.7143 L 341.3889 38.0955 L 341.3889 32.8572 L 337 30.2384 L 337 30.2384 " stroke="#ffffff" stroke-width="1" fill="none"/>
						<path d="M 345.7778 30.2384 L 341.3889 32.8572 L 341.3889 38.0955 L 345.7778 40.7143 L 350.1667 38.0955 L 350.1667 32.8572 L 345.7778 30.2384 Z" stroke="#ffffff" stroke-width="1" fill="none"/>
						<path d="M 354.5556 30.2384 L 350.1667 32.8572 L 350.1667 38.0955 L 354.5556 40.7143 L 358.9445 38.0955 L 358.9445 32.8572 L 354.5556 30.2384 Z" stroke="#ffffff" stroke-width="1" fill="none"/>
						<path d="M 363.3333 30.2384 L 358.9445 32.8572 L 358.9445 38.0955 L 363.3333 40.7143 L 367.7223 38.0955 L 367.7223 32.8572 L 363.3333 30.2384 Z" stroke="#ffffff" stroke-width="1" fill="none"/>
						<path d="M 372.1111 30.2384 L 367.7223 32.8572 L 367.7223 38.0955 L 372.1111 40.7143 L 376.5001 38.0955 L 376.5001 32.8572 L 372.1111 30.2384 Z" stroke="#ffffff" stroke-width="1" fill="none"/>
						<path d="M 380.8889 30.2384 L 376.5001 32.8572 L 376.5001 38.0955 L 380.8889 40.7143 L 385.2778 38.0955 L 385.2778 32.8572 L 380.8889 30.2384 Z" stroke="#ffffff" stroke-width="1" fill="none"/>
						<path d="M 389.6667 30.2384 L 385.2778 32.8572 L 385.2778 38.0955 L 389.6667 40.7143 L 394.0556 38.0955 L 394.0556 32.8572 L 389.6667 30.2384 Z" stroke="#ffffff" stroke-width="1" fill="none"/>
						<path d="M 398.4445 30.2384 L 394.0556 32.8572 L 394.0556 38.0955 L 398.4445 40.7143 L 402.8334 38.0955 L 402.8334 32.8572 L 398.4445 30.2384 Z" stroke="#ffffff" stroke-width="1" fill="none"/>
						<path d="M 407.2223 30.2384 L 402.8334 32.8572 L 402.8334 38.0955 L 407.2223 40.7143 L 411.6112 38.0955 L 411.6112 32.8572 L 407.2223 30.2384 Z" stroke="#ffffff" stroke-width="1" fill="none"/>
						<path d="M 416.0001 30.2384 L 411.6112 32.8572 L 411.6112 38.0955 L 416.0001 40.7143 L 420.389 38.0955 L 420.389 32.8572 L 416.0001 30.2384 Z" stroke="#ffffff" stroke-width="1" fill="none"/>
						<path d="M 424.7779 30.2384 L 420.389 32.8572 L 420.389 38.0955 L 424.7779 40.7143 L 429.1668 38.0955 L 429.1668 32.8572 L 424.7779 30.2384 Z" stroke="#ffffff" stroke-width="1" fill="none"/>
						<path d="M 433.5556 30.2384 L 429.1668 32.8572 L 429.1668 38.0955 L 433.5556 40.7143 L 437.9446 38.0955 L 437.9446 32.8572 L 433.5556 30.2384 Z" stroke="#ffffff" stroke-width="1" fill="none"/>
						<path d="M 442.3334 30.2384 L 437.9446 32.8572 L 437.9446 38.0955 L 442.3334 40.7143 L 446.7224 38.0955 L 446.7224 32.8572 L 442.3334 30.2384 Z" stroke="#ffffff" stroke-width="1" fill="none"/>
						<path d="M 451.1112 30.2384 L 446.7224 32.8572 L 446.7224 38.0955 L 451.1112 40.7143 L 455.5001 38.0955 L 455.5001 32.8572 L 451.1112 30.2384 Z" stroke="#ffffff" stroke-width="1" fill="none"/>
						<path d="M 459.889 30.2384 L 455.5001 32.8572 L 455.5001 38.0955 L 459.889 40.7143 L 464.2779 38.0955 L 464.2779 32.8572 L 459.889 30.2384 Z" stroke="#ffffff" stroke-width="1" fill="none"/>
						<path d="M 468.6668 30.2384 L 464.2779 32.8572 L 464.2779 38.0955 L 468.6668 40.7143 L 473.0557 38.0955 L 473.0557 32.8572 L 468.6668 30.2384 Z" stroke="#ffffff" stroke-width="1" fill="none"/>
						<path d="M 477.4446 30.2384 L 473.0557 32.8572 L 473.0557 38.0955 L 477.4446 40.7143 L 481.8334 38.0955 L 481.8334 32.8572 L 477.4446 30.2384 Z" stroke="#ffffff" stroke-width="1" fill="none"/>
						<path d="M 486.2224 30.2384 L 481.8334 32.8572 L 481.8334 38.0955 L 486.2224 40.7143 L 490.6111 38.0955 L 490.6111 32.8572 L 486.2224 30.2384 Z" stroke="#ffffff" stroke-width="1" fill="none"/>
						<path d="M 495 30.2384 L 490.6111 32.8572 L 490.6111 38.0955 L 495 40.7143 L 495 40.7143 " stroke="#ffffff" stroke-width="1" fill="none"/>
					</g>
					<g>
						<path d="M 341.3889 38.0955 L 337 40.7143 L 337 45.9526 L 341.3889 48.5715 L 345.7778 45.9526 L 345.7778 40.7143 L 341.3889 38.0955 Z" stroke="#ffffff" stroke-width="1" fill="none"/>
						<path d="M 350.1667 38.0955 L 345.7778 40.7143 L 345.7778 45.9526 L 350.1667 48.5715 L 354.5556 45.9526 L 354.5556 40.7143 L 350.1667 38.0955 Z" stroke="#ffffff" stroke-width="1" fill="none"/>
						<path d="M 358.9445 38.0955 L 354.5556 40.7143 L 354.5556 45.9526 L 358.9445 48.5715 L 363.3333 45.9526 L 363.3333 40.7143 L 358.9445 38.0955 Z" stroke="#ffffff" stroke-width="1" fill="none"/>
						<path d="M 367.7223 38.0955 L 363.3333 40.7143 L 363.3333 45.9526 L 367.7223 48.5715 L 372.1111 45.9526 L 372.1111 40.7143 L 367.7223 38.0955 Z" stroke="#ffffff" stroke-width="1" fill="none"/>
						<path d="M 376.5001 38.0955 L 372.1111 40.7143 L 372.1111 45.9526 L 376.5001 48.5715 L 380.8889 45.9526 L 380.8889 40.7143 L 376.5001 38.0955 Z" stroke="#ffffff" stroke-width="1" fill="none"/>
						<path d="M 385.2778 38.0955 L 380.8889 40.7143 L 380.8889 45.9526 L 385.2778 48.5715 L 389.6667 45.9526 L 389.6667 40.7143 L 385.2778 38.0955 Z" stroke="#ffffff" stroke-width="1" fill="none"/>
						<path d="M 394.0556 38.0955 L 389.6667 40.7143 L 389.6667 45.9526 L 394.0556 48.5715 L 398.4445 45.9526 L 398.4445 40.7143 L 394.0556 38.0955 Z" stroke="#ffffff" stroke-width="1" fill="none"/>
						<path d="M 402.8334 38.0955 L 398.4445 40.7143 L 398.4445 45.9526 L 402.8334 48.5715 L 407.2223 45.9526 L 407.2223 40.7143 L 402.8334 38.0955 Z" stroke="#ffffff" stroke-width="1" fill="none"/>
						<path d="M 411.6112 38.0955 L 407.2223 40.7143 L 407.2223 45.9526 L 411.6112 48.5715 L 416.0001 45.9526 L 416.0001 40.7143 L 411.6112 38.0955 Z" stroke="#ffffff" stroke-width="1" fill="none"/>
						<path d="M 420.389 38.0955 L 416.0001 40.7143 L 416.0001 45.9526 L 420.389 48.5715 L 424.7779 45.9526 L 424.7779 40.7143 L 420.389 38.0955 Z" stroke="#ffffff" stroke-width="1" fill="none"/>
						<path d="M 429.1668 38.0955 L 424.7779 40.7143 L 424.7779 45.9526 L 429.1668 48.5715 L 433.5556 45.9526 L 433.5556 40.7143 L 429.1668 38.0955 Z" stroke="#ffffff" stroke-width="1" fill="none"/>
						<path d="M 437.9446 38.0955 L 433.5556 40.7143 L 433.5556 45.9526 L 437.9446 48.5715 L 442.3334 45.9526 L 442.3334 40.7143 L 437.9446 38.0955 Z" stroke="#ffffff" stroke-width="1" fill="none"/>
						<path d="M 446.7224 38.0955 L 442.3334 40.7143 L 442.3334 45.9526 L 446.7224 48.5715 L 451.1112 45.9526 L 451.1112 40.7143 L 446.7224 38.0955 Z" stroke="#ffffff" stroke-width="1" fill="none"/>
						<path d="M 455.5001 38.0955 L 451.1112 40.7143 L 451.1112 45.9526 L 455.5001 48.5715 L 459.889 45.9526 L 459.889 40.7143 L 455.5001 38.0955 Z" stroke="#ffffff" stroke-width="1" fill="none"/>
						<path d="M 464.2779 38.0955 L 459.889 40.7143 L 459.889 45.9526 L 464.2779 48.5715 L 468.6668 45.9526 L 468.6668 40.7143 L 464.2779 38.0955 Z" stroke="#ffffff" stroke-width="1" fill="none"/>
						<path d="M 473.0557 38.0955 L 468.6668 40.7143 L 468.6668 45.9526 L 473.0557 48.5715 L 477.4446 45.9526 L 477.4446 40.7143 L 473.0557 38.0955 Z" stroke="#ffffff" stroke-width="1" fill="none"/>
						<path d="M 481.8334 38.0955 L 477.4446 40.7143 L 477.4446 45.9526 L 481.8334 48.5715 L 486.2224 45.9526 L 486.2224 40.7143 L 481.8334 38.0955 Z" stroke="#ffffff" stroke-width="1" fill="none"/>
						<path d="M 490.6111 38.0955 L 486.2224 40.7143 L 486.2224 45.9526 L 490.6111 48.5715 L 495 45.9526 L 495 40.7143 L 490.6111 38.0955 Z" stroke="#ffffff" stroke-width="1" fill="none"/>
					</g>
				</g>
			</g>
			<g>
				<g>
					<path d="M 337 56.4286 L 341.3889 53.8098 L 341.3889 48.5715 L 337 45.9526 L 337 45.9526 " stroke="#ffffff" stroke-width="1" fill="none"/>
					<path d="M 345.7778 45.9526 L 341.3889 48.5715 L 341.3889 53.8098 L 345.7778 56.4286 L 350.1667 53.8098 L 350.1667 48.5715 L 345.7778 45.9526 Z" stroke="#ffffff" stroke-width="1" fill="none"/>
					<path d="M 354.5556 45.9526 L 350.1667 48.5715 L 350.1667 53.8098 L 354.5556 56.4286 L 358.9445 53.8098 L 358.9445 48.5715 L 354.5556 45.9526 Z" stroke="#ffffff" stroke-width="1" fill="none"/>
					<path d="M 363.3333 45.9526 L 358.9445 48.5715 L 358.9445 53.8098 L 363.3333 56.4286 L 367.7223 53.8098 L 367.7223 48.5715 L 363.3333 45.9526 Z" stroke="#ffffff" stroke-width="1" fill="none"/>
					<path d="M 372.1111 45.9526 L 367.7223 48.5715 L 367.7223 53.8098 L 372.1111 56.4286 L 376.5001 53.8098 L 376.5001 48.5715 L 372.1111 45.9526 Z" stroke="#ffffff" stroke-width="1" fill="none"/>
					<path d="M 380.8889 45.9526 L 376.5001 48.5715 L 376.5001 53.8098 L 380.8889 56.4286 L 385.2778 53.8098 L 385.2778 48.5715 L 380.8889 45.9526 Z" stroke="#ffffff" stroke-width="1" fill="none"/>
					<path d="M 389.6667 45.9526 L 385.2778 48.5715 L 385.2778 53.8098 L 389.6667 56.4286 L 394.0556 53.8098 L 394.0556 48.5715 L 389.6667 45.9526 Z" stroke="#ffffff" stroke-width="1" fill="none"/>
					<path d="M 398.4445 45.9526 L 394.0556 48.5715 L 394.0556 53.8098 L 398.4445 56.4286 L 402.8334 53.8098 L 402.8334 48.5715 L 398.4445 45.9526 Z" stroke="#ffffff" stroke-width="1" fill="none"/>
					<path d="M 407.2223 45.9526 L 402.8334 48.5715 L 402.8334 53.8098 L 407.2223 56.4286 L 411.6112 53.8098 L 411.6112 48.5715 L 407.2223 45.9526 Z" stroke="#ffffff" stroke-width="1" fill="none"/>
					<path d="M 416.0001 45.9526 L 411.6112 48.5715 L 411.6112 53.8098 L 416.0001 56.4286 L 420.389 53.8098 L 420.389 48.5715 L 416.0001 45.9526 Z" stroke="#ffffff" stroke-width="1" fill="none"/>
					<path d="M 424.7779 45.9526 L 420.389 48.5715 L 420.389 53.8098 L 424.7779 56.4286 L 429.1668 53.8098 L 429.1668 48.5715 L 424.7779 45.9526 Z" stroke="#ffffff" stroke-width="1" fill="none"/>
					<path d="M 433.5556 45.9526 L 429.1668 48.5715 L 429.1668 53.8098 L 433.5556 56.4286 L 437.9446 53.8098 L 437.9446 48.5715 L 433.5556 45.9526 Z" stroke="#ffffff" stroke-width="1" fill="none"/>
					<path d="M 442.3334 45.9526 L 437.9446 48.5715 L 437.9446 53.8098 L 442.3334 56.4286 L 446.7224 53.8098 L 446.7224 48.5715 L 442.3334 45.9526 Z" stroke="#ffffff" stroke-width="1" fill="none"/>
					<path d="M 451.1112 45.9526 L 446.7224 48.5715 L 446.7224 53.8098 L 451.1112 56.4286 L 455.5001 53.8098 L 455.5001 48.5715 L 451.1112 45.9526 Z" stroke="#ffffff" stroke-width="1" fill="none"/>
					<path d="M 459.889 45.9526 L 455.5001 48.5715 L 455.5001 53.8098 L 459.889 56.4286 L 464.2779 53.8098 L 464.2779 48.5715 L 459.889 45.9526 Z" stroke="#ffffff" stroke-width="1" fill="none"/>
					<path d="M 468.6668 45.9526 L 464.2779 48.5715 L 464.2779 53.8098 L 468.6668 56.4286 L 473.0557 53.8098 L 473.0557 48.5715 L 468.6668 45.9526 Z" stroke="#ffffff" stroke-width="1" fill="none"/>
					<path d="M 477.4446 45.9526 L 473.0557 48.5715 L 473.0557 53.8098 L 477.4446 56.4286 L 481.8334 53.8098 L 481.8334 48.5715 L 477.4446 45.9526 Z" stroke="#ffffff" stroke-width="1" fill="none"/>
					<path d="M 486.2224 45.9526 L 481.8334 48.5715 L 481.8334 53.8098 L 486.2224 56.4286 L 490.6111 53.8098 L 490.6111 48.5715 L 486.2224 45.9526 Z" stroke="#ffffff" stroke-width="1" fill="none"/>
					<path d="M 495 45.9526 L 490.6111 48.5715 L 490.6111 53.8098 L 495 56.4286 L 495 56.4286 " stroke="#ffffff" stroke-width="1" fill="none"/>
				</g>
				<g>
					<path d="M 341.3889 53.8098 L 337 56.4286 L 337 61.6669 L 341.3889 64.2858 L 345.7778 61.6669 L 345.7778 56.4286 L 341.3889 53.8098 Z" stroke="#ffffff" stroke-width="1" fill="none"/>
					<path d="M 350.1667 53.8098 L 345.7778 56.4286 L 345.7778 61.6669 L 350.1667 64.2858 L 354.5556 61.6669 L 354.5556 56.4286 L 350.1667 53.8098 Z" stroke="#ffffff" stroke-width="1" fill="none"/>
					<path d="M 358.9445 53.8098 L 354.5556 56.4286 L 354.5556 61.6669 L 358.9445 64.2858 L 363.3333 61.6669 L 363.3333 56.4286 L 358.9445 53.8098 Z" stroke="#ffffff" stroke-width="1" fill="none"/>
					<path d="M 367.7223 53.8098 L 363.3333 56.4286 L 363.3333 61.6669 L 367.7223 64.2858 L 372.1111 61.6669 L 372.1111 56.4286 L 367.7223 53.8098 Z" stroke="#ffffff" stroke-width="1" fill="none"/>
					<path d="M 376.5001 53.8098 L 372.1111 56.4286 L 372.1111 61.6669 L 376.5001 64.2858 L 380.8889 61.6669 L 380.8889 56.4286 L 376.5001 53.8098 Z" stroke="#ffffff" stroke-width="1" fill="none"/>
					<path d="M 385.2778 53.8098 L 380.8889 56.4286 L 380.8889 61.6669 L 385.2778 64.2858 L 389.6667 61.6669 L 389.6667 56.4286 L 385.2778 53.8098 Z" stroke="#ffffff" stroke-width="1" fill="none"/>
					<path d="M 394.0556 53.8098 L 389.6667 56.4286 L 389.6667 61.6669 L 394.0556 64.2858 L 398.4445 61.6669 L 398.4445 56.4286 L 394.0556 53.8098 Z" stroke="#ffffff" stroke-width="1" fill="none"/>
					<path d="M 402.8334 53.8098 L 398.4445 56.4286 L 398.4445 61.6669 L 402.8334 64.2858 L 407.2223 61.6669 L 407.2223 56.4286 L 402.8334 53.8098 Z" stroke="#ffffff" stroke-width="1" fill="none"/>
					<path d="M 411.6112 53.8098 L 407.2223 56.4286 L 407.2223 61.6669 L 411.6112 64.2858 L 416.0001 61.6669 L 416.0001 56.4286 L 411.6112 53.8098 Z" stroke="#ffffff" stroke-width="1" fill="none"/>
					<path d="M 420.389 53.8098 L 416.0001 56.4286 L 416.0001 61.6669 L 420.389 64.2858 L 424.7779 61.6669 L 424.7779 56.4286 L 420.389 53.8098 Z" stroke="#ffffff" stroke-width="1" fill="none"/>
					<path d="M 429.1668 53.8098 L 424.7779 56.4286 L 424.7779 61.6669 L 429.1668 64.2858 L 433.5556 61.6669 L 433.5556 56.4286 L 429.1668 53.8098 Z" stroke="#ffffff" stroke-width="1" fill="none"/>
					<path d="M 437.9446 53.8098 L 433.5556 56.4286 L 433.5556 61.6669 L 437.9446 64.2858 L 442.3334 61.6669 L 442.3334 56.4286 L 437.9446 53.8098 Z" stroke="#ffffff" stroke-width="1" fill="none"/>
					<path d="M 446.7224 53.8098 L 442.3334 56.4286 L 442.3334 61.6669 L 446.7224 64.2858 L 451.1112 61.6669 L 451.1112 56.4286 L 446.7224 53.8098 Z" stroke="#ffffff" stroke-width="1" fill="none"/>
					<path d="M 455.5001 53.8098 L 451.1112 56.4286 L 451.1112 61.6669 L 455.5001 64.2858 L 459.889 61.6669 L 459.889 56.4286 L 455.5001 53.8098 Z" stroke="#ffffff" stroke-width="1" fill="none"/>
					<path d="M 464.2779 53.8098 L 459.889 56.4286 L 459.889 61.6669 L 464.2779 64.2858 L 468.6668 61.6669 L 468.6668 56.4286 L 464.2779 53.8098 Z" stroke="#ffffff" stroke-width="1" fill="none"/>
					<path d="M 473.0557 53.8098 L 468.6668 56.4286 L 468.6668 61.6669 L 473.0557 64.2858 L 477.4446 61.6669 L 477.4446 56.4286 L 473.0557 53.8098 Z" stroke="#ffffff" stroke-width="1" fill="none"/>
					<path d="M 481.8334 53.8098 L 477.4446 56.4286 L 477.4446 61.6669 L 481.8334 64.2858 L 486.2224 61.6669 L 486.2224 56.4286 L 481.8334 53.8098 Z" stroke="#ffffff" stroke-width="1" fill="none"/>
					<path d="M 490.6111 53.8098 L 486.2224 56.4286 L 486.2224 61.6669 L 490.6111 64.2858 L 495 61.6669 L 495 56.4286 L 490.6111 53.8098 Z" stroke="#ffffff" stroke-width="1" fill="none"/>
				</g>
				<g>
					<g>
						<path d="M 337 72.1429 L 341.3889 69.5241 L 341.3889 64.2858 L 337 61.6669 L 337 61.6669 " stroke="#ffffff" stroke-width="1" fill="none"/>
						<path d="M 345.7778 61.6669 L 341.3889 64.2858 L 341.3889 69.5241 L 345.7778 72.1429 L 350.1667 69.5241 L 350.1667 64.2858 L 345.7778 61.6669 Z" stroke="#ffffff" stroke-width="1" fill="none"/>
						<path d="M 354.5556 61.6669 L 350.1667 64.2858 L 350.1667 69.5241 L 354.5556 72.1429 L 358.9445 69.5241 L 358.9445 64.2858 L 354.5556 61.6669 Z" stroke="#ffffff" stroke-width="1" fill="none"/>
						<path d="M 363.3333 61.6669 L 358.9445 64.2858 L 358.9445 69.5241 L 363.3333 72.1429 L 367.7223 69.5241 L 367.7223 64.2858 L 363.3333 61.6669 Z" stroke="#ffffff" stroke-width="1" fill="none"/>
						<path d="M 372.1111 61.6669 L 367.7223 64.2858 L 367.7223 69.5241 L 372.1111 72.1429 L 376.5001 69.5241 L 376.5001 64.2858 L 372.1111 61.6669 Z" stroke="#ffffff" stroke-width="1" fill="none"/>
						<path d="M 380.8889 61.6669 L 376.5001 64.2858 L 376.5001 69.5241 L 380.8889 72.1429 L 385.2778 69.5241 L 385.2778 64.2858 L 380.8889 61.6669 Z" stroke="#ffffff" stroke-width="1" fill="none"/>
						<path d="M 389.6667 61.6669 L 385.2778 64.2858 L 385.2778 69.5241 L 389.6667 72.1429 L 394.0556 69.5241 L 394.0556 64.2858 L 389.6667 61.6669 Z" stroke="#ffffff" stroke-width="1" fill="none"/>
						<path d="M 398.4445 61.6669 L 394.0556 64.2858 L 394.0556 69.5241 L 398.4445 72.1429 L 402.8334 69.5241 L 402.8334 64.2858 L 398.4445 61.6669 Z" stroke="#ffffff" stroke-width="1" fill="none"/>
						<path d="M 407.2223 61.6669 L 402.8334 64.2858 L 402.8334 69.5241 L 407.2223 72.1429 L 411.6112 69.5241 L 411.6112 64.2858 L 407.2223 61.6669 Z" stroke="#ffffff" stroke-width="1" fill="none"/>
						<path d="M 416.0001 61.6669 L 411.6112 64.2858 L 411.6112 69.5241 L 416.0001 72.1429 L 420.389 69.5241 L 420.389 64.2858 L 416.0001 61.6669 Z" stroke="#ffffff" stroke-width="1" fill="none"/>
						<path d="M 424.7779 61.6669 L 420.389 64.2858 L 420.389 69.5241 L 424.7779 72.1429 L 429.1668 69.5241 L 429.1668 64.2858 L 424.7779 61.6669 Z" stroke="#ffffff" stroke-width="1" fill="none"/>
						<path d="M 433.5556 61.6669 L 429.1668 64.2858 L 429.1668 69.5241 L 433.5556 72.1429 L 437.9446 69.5241 L 437.9446 64.2858 L 433.5556 61.6669 Z" stroke="#ffffff" stroke-width="1" fill="none"/>
						<path d="M 442.3334 61.6669 L 437.9446 64.2858 L 437.9446 69.5241 L 442.3334 72.1429 L 446.7224 69.5241 L 446.7224 64.2858 L 442.3334 61.6669 Z" stroke="#ffffff" stroke-width="1" fill="none"/>
						<path d="M 451.1112 61.6669 L 446.7224 64.2858 L 446.7224 69.5241 L 451.1112 72.1429 L 455.5001 69.5241 L 455.5001 64.2858 L 451.1112 61.6669 Z" stroke="#ffffff" stroke-width="1" fill="none"/>
						<path d="M 459.889 61.6669 L 455.5001 64.2858 L 455.5001 69.5241 L 459.889 72.1429 L 464.2779 69.5241 L 464.2779 64.2858 L 459.889 61.6669 Z" stroke="#ffffff" stroke-width="1" fill="none"/>
						<path d="M 468.6668 61.6669 L 464.2779 64.2858 L 464.2779 69.5241 L 468.6668 72.1429 L 473.0557 69.5241 L 473.0557 64.2858 L 468.6668 61.6669 Z" stroke="#ffffff" stroke-width="1" fill="none"/>
						<path d="M 477.4446 61.6669 L 473.0557 64.2858 L 473.0557 69.5241 L 477.4446 72.1429 L 481.8334 69.5241 L 481.8334 64.2858 L 477.4446 61.6669 Z" stroke="#ffffff" stroke-width="1" fill="none"/>
						<path d="M 486.2224 61.6669 L 481.8334 64.2858 L 481.8334 69.5241 L 486.2224 72.1429 L 490.6111 69.5241 L 490.6111 64.2858 L 486.2224 61.6669 Z" stroke="#ffffff" stroke-width="1" fill="none"/>
						<path d="M 495 61.6669 L 490.6111 64.2858 L 490.6111 69.5241 L 495 72.1429 L 495 72.1429 " stroke="#ffffff" stroke-width="1" fill="none"/>
					</g>
					<g>
						<path d="M 341.3889 69.5241 L 337 72.1429 L 337 77.3813 L 341.3889 80 L 345.7778 77.3813 L 345.7778 72.1429 L 341.3889 69.5241 Z" stroke="#ffffff" stroke-width="1" fill="none"/>
						<path d="M 350.1667 69.5241 L 345.7778 72.1429 L 345.7778 77.3813 L 350.1667 80 L 354.5556 77.3813 L 354.5556 72.1429 L 350.1667 69.5241 Z" stroke="#ffffff" stroke-width="1" fill="none"/>
						<path d="M 358.9445 69.5241 L 354.5556 72.1429 L 354.5556 77.3813 L 358.9445 80 L 363.3333 77.3813 L 363.3333 72.1429 L 358.9445 69.5241 Z" stroke="#ffffff" stroke-width="1" fill="none"/>
						<path d="M 367.7223 69.5241 L 363.3333 72.1429 L 363.3333 77.3813 L 367.7223 80 L 372.1111 77.3813 L 372.1111 72.1429 L 367.7223 69.5241 Z" stroke="#ffffff" stroke-width="1" fill="none"/>
						<path d="M 376.5001 69.5241 L 372.1111 72.1429 L 372.1111 77.3813 L 376.5001 80 L 380.8889 77.3813 L 380.8889 72.1429 L 376.5001 69.5241 Z" stroke="#ffffff" stroke-width="1" fill="none"/>
						<path d="M 385.2778 69.5241 L 380.8889 72.1429 L 380.8889 77.3813 L 385.2778 80 L 389.6667 77.3813 L 389.6667 72.1429 L 385.2778 69.5241 Z" stroke="#ffffff" stroke-width="1" fill="none"/>
						<path d="M 394.0556 69.5241 L 389.6667 72.1429 L 389.6667 77.3813 L 394.0556 80 L 398.4445 77.3813 L 398.4445 72.1429 L 394.0556 69.5241 Z" stroke="#ffffff" stroke-width="1" fill="none"/>
						<path d="M 402.8334 69.5241 L 398.4445 72.1429 L 398.4445 77.3813 L 402.8334 80 L 407.2223 77.3813 L 407.2223 72.1429 L 402.8334 69.5241 Z" stroke="#ffffff" stroke-width="1" fill="none"/>
						<path d="M 411.6112 69.5241 L 407.2223 72.1429 L 407.2223 77.3813 L 411.6112 80 L 416.0001 77.3813 L 416.0001 72.1429 L 411.6112 69.5241 Z" stroke="#ffffff" stroke-width="1" fill="none"/>
						<path d="M 420.389 69.5241 L 416.0001 72.1429 L 416.0001 77.3813 L 420.389 80 L 424.7779 77.3813 L 424.7779 72.1429 L 420.389 69.5241 Z" stroke="#ffffff" stroke-width="1" fill="none"/>
						<path d="M 429.1668 69.5241 L 424.7779 72.1429 L 424.7779 77.3813 L 429.1668 80 L 433.5556 77.3813 L 433.5556 72.1429 L 429.1668 69.5241 Z" stroke="#ffffff" stroke-width="1" fill="none"/>
						<path d="M 437.9446 69.5241 L 433.5556 72.1429 L 433.5556 77.3813 L 437.9446 80 L 442.3334 77.3813 L 442.3334 72.1429 L 437.9446 69.5241 Z" stroke="#ffffff" stroke-width="1" fill="none"/>
						<path d="M 446.7224 69.5241 L 442.3334 72.1429 L 442.3334 77.3813 L 446.7224 80 L 451.1112 77.3813 L 451.1112 72.1429 L 446.7224 69.5241 Z" stroke="#ffffff" stroke-width="1" fill="none"/>
						<path d="M 455.5001 69.5241 L 451.1112 72.1429 L 451.1112 77.3813 L 455.5001 80 L 459.889 77.3813 L 459.889 72.1429 L 455.5001 69.5241 Z" stroke="#ffffff" stroke-width="1" fill="none"/>
						<path d="M 464.2779 69.5241 L 459.889 72.1429 L 459.889 77.3813 L 464.2779 80 L 468.6668 77.3813 L 468.6668 72.1429 L 464.2779 69.5241 Z" stroke="#ffffff" stroke-width="1" fill="none"/>
						<path d="M 473.0557 69.5241 L 468.6668 72.1429 L 468.6668 77.3813 L 473.0557 80 L 477.4446 77.3813 L 477.4446 72.1429 L 473.0557 69.5241 Z" stroke="#ffffff" stroke-width="1" fill="none"/>
						<path d="M 481.8334 69.5241 L 477.4446 72.1429 L 477.4446 77.3813 L 481.8334 80 L 486.2224 77.3813 L 486.2224 72.1429 L 481.8334 69.5241 Z" stroke="#ffffff" stroke-width="1" fill="none"/>
						<path d="M 490.6111 69.5241 L 486.2224 72.1429 L 486.2224 77.3813 L 490.6111 80 L 495 77.3813 L 495 72.1429 L 490.6111 69.5241 Z" stroke="#ffffff" stroke-width="1" fill="none"/>
					</g>
				</g>
			</g>
		</g>
		<rect x="0" y="0" width="834" height="707" stroke="#2f3f4f" stroke-width="1" fill="none"/>
	</g>
</svg>