<?xml version="1.0" standalone="no"?>
<!-- Generator: Adobe Fireworks 10, Export SVG Extension by Aaron Beall (http://fireworks.abeall.com) . Version: 0.6.1  -->
<!DOCTYPE svg PUBLIC "-//W3C//DTD SVG 1.1//EN" "http://www.w3.org/Graphics/SVG/1.1/DTD/svg11.dtd">
<svg id="Untitled-Page%201" viewBox="0 0 58 80" style="background-color:#ffffff00" version="1.1"
	xmlns="http://www.w3.org/2000/svg" xmlns:xlink="http://www.w3.org/1999/xlink" xml:space="preserve"
	x="0px" y="0px" width="58px" height="80px"
>
	<g id="Layer%201">
		<g>
			<path d="M 20.7449 1.3242 C 20.7449 1.3242 38.9521 -0.3522 41.6339 3.4431 C 44.3154 7.2386 38.58 8.5026 36.1763 8.4494 C 33.7726 8.3962 21.3565 2.3954 20.7449 1.3242 Z" fill="#666666"/>
			<path d="M 41.3003 2.5718 C 41.3003 2.5718 40.6973 -0.606 20.0602 0.1032 L 20.0602 1.5019 C 20.0602 1.5019 38.0706 0.387 41.3047 3.8487 C 41.3047 3.8487 42.1322 3.8484 41.3003 2.5718 Z" fill="#b0b0b0"/>
			<path d="M 54.9167 12.1432 C 54.9167 12.1432 58.4046 21.4346 57.961 27.4619 C 57.961 27.4619 56.6288 29.8478 51.8088 30.3499 C 51.8088 30.3499 53.4579 14.2779 54.9167 12.1432 Z" fill="#b0b0b0"/>
			<path d="M 57.961 27.4619 C 57.961 27.4619 58.0201 28.6201 57.8164 30.0737 C 57.8164 30.0737 55.6699 32.3328 51.5577 32.3998 L 51.8088 30.3499 C 51.8088 30.3499 55.9813 29.5023 57.961 27.4619 Z" fill="#888888"/>
			<path d="M 42.3968 3.5468 C 42.3968 3.5468 46.4651 6.3153 50.0248 7.322 C 53.5842 8.3287 54.9167 12.1432 54.9167 12.1432 C 54.9167 12.1432 50.1598 40.0098 49.8151 46.7264 C 49.4698 53.4431 49.7 74.1623 49.7 74.1623 C 49.7 74.1623 31.2991 84.8631 10.3687 73.3653 C 10.3687 73.3653 11.1735 65.5103 11.9786 60.7289 C 12.7838 55.9475 7.2322 12.552 9.1454 9.6033 C 11.0587 6.6545 16.8088 4.4478 19.2238 0.9406 C 19.2238 0.9406 39.1187 14.8969 42.3968 3.5468 Z" fill="#cfcfcf"/>
			<path d="M 9.1454 9.6033 C 5.972 10.8063 2.2581 15.6742 0.2327 32.2892 C 0.2327 32.2892 8.4032 35.2689 14.6147 34.133 C 14.6147 34.133 20.6919 18.8937 15.6274 13.4798 C 12.1838 9.0017 9.1454 9.6033 9.1454 9.6033 Z" fill="#b0b0b0"/>
			<path d="M 0 33.614 C 0 33.614 5.6369 33.621 7.2069 34.4649 C 8.777 35.309 14.1547 35.2856 14.1547 35.2856 L 14.6147 34.133 C 14.6147 34.133 9.7015 34.1564 7.4198 33.2256 C 5.1378 32.295 0.2327 32.3199 0.2327 32.3199 L 0 33.614 Z" fill="#888888"/>
			<path d="M 41.3003 2.5718 L 42.5256 3.6325 C 42.5256 3.6325 43.2493 8.8141 36.8 8.8141 C 30.3504 8.8141 18.9534 1.3098 18.9534 1.3098 L 20.0602 0.1032 C 20.0602 0.1032 31.0435 8.2147 37.554 6.947 C 42.6494 5.9546 41.0991 2.9121 41.3003 2.5718 Z" fill="#888888"/>
			<path d="M 30.3817 78.0852 C 44.75 78.0852 49.8678 73.6801 49.8678 73.6801 L 49.8678 75.5949 C 49.8678 75.5949 45.9037 80 30.3817 80 C 14.86 80 10.2828 75.1173 10.2828 75.1173 L 10.2828 73.2024 C 10.2828 73.2024 16.0134 78.0852 30.3817 78.0852 Z" fill="#888888"/>
		</g>
	</g>
</svg>